<mxfile host="app.diagrams.net" agent="Mozilla/5.0 (Windows NT 10.0; Win64; x64) AppleWebKit/537.36 (KHTML, like Gecko) Chrome/136.0.0.0 Safari/537.36" version="27.0.9">
  <diagram name="Страница-1" id="0618idRESLrDNMiC--e1">
    <mxGraphModel dx="1026" dy="556" grid="1" gridSize="10" guides="1" tooltips="1" connect="1" arrows="1" fold="1" page="1" pageScale="1" pageWidth="827" pageHeight="1169" math="0" shadow="0">
      <root>
        <mxCell id="0" />
        <mxCell id="1" parent="0" />
        <mxCell id="QWppoCl-oQC9Dy7gS9Su-1" value="www.kaldata.com" style="rounded=1;whiteSpace=wrap;html=1;fillColor=#B3FF66;" vertex="1" parent="1">
          <mxGeometry x="210" y="100" width="150" height="30" as="geometry" />
        </mxCell>
        <mxCell id="QWppoCl-oQC9Dy7gS9Su-2" value="&lt;div&gt;Sqlite3 - DB&lt;/div&gt;&lt;div&gt;&lt;br&gt;&lt;/div&gt;kaldata.db&lt;div&gt;&lt;br&gt;&lt;/div&gt;" style="shape=cylinder3;whiteSpace=wrap;html=1;boundedLbl=1;backgroundOutline=1;size=15;fillColor=#FFD966;" vertex="1" parent="1">
          <mxGeometry x="690" y="220" width="83.5" height="100" as="geometry" />
        </mxCell>
        <mxCell id="QWppoCl-oQC9Dy7gS9Su-3" value="pipelines.py" style="whiteSpace=wrap;html=1;aspect=fixed;fillColor=#FFD966;" vertex="1" parent="1">
          <mxGeometry x="270" y="340" width="80" height="80" as="geometry" />
        </mxCell>
        <mxCell id="QWppoCl-oQC9Dy7gS9Su-4" value="content.json" style="rounded=0;whiteSpace=wrap;html=1;fillColor=#99FFFF;" vertex="1" parent="1">
          <mxGeometry x="460" y="190" width="160" height="30" as="geometry" />
        </mxCell>
        <mxCell id="QWppoCl-oQC9Dy7gS9Su-5" value="main.py" style="rounded=0;whiteSpace=wrap;html=1;fillColor=#FFD966;" vertex="1" parent="1">
          <mxGeometry x="460" y="260" width="160" height="30" as="geometry" />
        </mxCell>
        <mxCell id="QWppoCl-oQC9Dy7gS9Su-6" value="content-schema.json" style="rounded=0;whiteSpace=wrap;html=1;fillColor=#99FFFF;" vertex="1" parent="1">
          <mxGeometry x="460" y="330" width="160" height="30" as="geometry" />
        </mxCell>
        <mxCell id="QWppoCl-oQC9Dy7gS9Su-8" value="items.py" style="whiteSpace=wrap;html=1;aspect=fixed;fillColor=#FFD966;" vertex="1" parent="1">
          <mxGeometry x="270" y="190" width="80" height="80" as="geometry" />
        </mxCell>
        <mxCell id="QWppoCl-oQC9Dy7gS9Su-9" value="settings.py" style="whiteSpace=wrap;html=1;aspect=fixed;fillColor=#FFB366;" vertex="1" parent="1">
          <mxGeometry x="90" y="340" width="80" height="80" as="geometry" />
        </mxCell>
        <mxCell id="QWppoCl-oQC9Dy7gS9Su-10" value="All sections - only first 3 pages" style="rounded=1;whiteSpace=wrap;html=1;fillColor=#B3FF66;" vertex="1" parent="1">
          <mxGeometry x="440" y="100" width="100" height="30" as="geometry" />
        </mxCell>
        <mxCell id="QWppoCl-oQC9Dy7gS9Su-20" value="kaldata_spider.py" style="whiteSpace=wrap;html=1;aspect=fixed;fillColor=#FFFF99;" vertex="1" parent="1">
          <mxGeometry x="80" y="180" width="100" height="100" as="geometry" />
        </mxCell>
        <mxCell id="QWppoCl-oQC9Dy7gS9Su-26" value="" style="endArrow=classic;startArrow=classic;html=1;rounded=0;entryX=0.5;entryY=1;entryDx=0;entryDy=0;exitX=0.5;exitY=0;exitDx=0;exitDy=0;" edge="1" parent="1" source="QWppoCl-oQC9Dy7gS9Su-5" target="QWppoCl-oQC9Dy7gS9Su-4">
          <mxGeometry width="50" height="50" relative="1" as="geometry">
            <mxPoint x="370" y="340" as="sourcePoint" />
            <mxPoint x="420" y="290" as="targetPoint" />
          </mxGeometry>
        </mxCell>
        <mxCell id="QWppoCl-oQC9Dy7gS9Su-27" value="" style="endArrow=classic;startArrow=classic;html=1;rounded=0;entryX=0.5;entryY=1;entryDx=0;entryDy=0;" edge="1" parent="1" source="QWppoCl-oQC9Dy7gS9Su-6" target="QWppoCl-oQC9Dy7gS9Su-5">
          <mxGeometry width="50" height="50" relative="1" as="geometry">
            <mxPoint x="370" y="340" as="sourcePoint" />
            <mxPoint x="420" y="290" as="targetPoint" />
          </mxGeometry>
        </mxCell>
        <mxCell id="QWppoCl-oQC9Dy7gS9Su-30" value="" style="endArrow=classic;html=1;rounded=0;" edge="1" parent="1">
          <mxGeometry width="50" height="50" relative="1" as="geometry">
            <mxPoint x="410" y="270" as="sourcePoint" />
            <mxPoint x="460" y="270" as="targetPoint" />
          </mxGeometry>
        </mxCell>
        <mxCell id="QWppoCl-oQC9Dy7gS9Su-31" value="" style="endArrow=none;html=1;rounded=0;" edge="1" parent="1">
          <mxGeometry width="50" height="50" relative="1" as="geometry">
            <mxPoint x="410" y="380" as="sourcePoint" />
            <mxPoint x="410" y="270" as="targetPoint" />
          </mxGeometry>
        </mxCell>
        <mxCell id="QWppoCl-oQC9Dy7gS9Su-32" value="" style="endArrow=none;html=1;rounded=0;exitX=1;exitY=0.5;exitDx=0;exitDy=0;" edge="1" parent="1" source="QWppoCl-oQC9Dy7gS9Su-3">
          <mxGeometry width="50" height="50" relative="1" as="geometry">
            <mxPoint x="360" y="380" as="sourcePoint" />
            <mxPoint x="410" y="380" as="targetPoint" />
          </mxGeometry>
        </mxCell>
        <mxCell id="QWppoCl-oQC9Dy7gS9Su-34" value="" style="endArrow=classic;html=1;rounded=0;exitX=0.5;exitY=1;exitDx=0;exitDy=0;entryX=0.5;entryY=0;entryDx=0;entryDy=0;" edge="1" parent="1" source="QWppoCl-oQC9Dy7gS9Su-20" target="QWppoCl-oQC9Dy7gS9Su-9">
          <mxGeometry width="50" height="50" relative="1" as="geometry">
            <mxPoint x="370" y="350" as="sourcePoint" />
            <mxPoint x="420" y="300" as="targetPoint" />
          </mxGeometry>
        </mxCell>
        <mxCell id="QWppoCl-oQC9Dy7gS9Su-36" value="" style="endArrow=classic;html=1;rounded=0;exitX=1;exitY=0.5;exitDx=0;exitDy=0;" edge="1" parent="1" source="QWppoCl-oQC9Dy7gS9Su-5">
          <mxGeometry width="50" height="50" relative="1" as="geometry">
            <mxPoint x="510" y="330" as="sourcePoint" />
            <mxPoint x="690" y="275" as="targetPoint" />
          </mxGeometry>
        </mxCell>
        <mxCell id="QWppoCl-oQC9Dy7gS9Su-37" value="" style="endArrow=classic;startArrow=classic;html=1;rounded=0;exitX=1;exitY=0.5;exitDx=0;exitDy=0;entryX=0;entryY=0.5;entryDx=0;entryDy=0;" edge="1" parent="1" source="QWppoCl-oQC9Dy7gS9Su-1" target="QWppoCl-oQC9Dy7gS9Su-10">
          <mxGeometry width="50" height="50" relative="1" as="geometry">
            <mxPoint x="530" y="330" as="sourcePoint" />
            <mxPoint x="580" y="280" as="targetPoint" />
          </mxGeometry>
        </mxCell>
        <mxCell id="QWppoCl-oQC9Dy7gS9Su-38" value="" style="endArrow=classic;startArrow=classic;html=1;rounded=0;entryX=0.5;entryY=1;entryDx=0;entryDy=0;exitX=0.5;exitY=0;exitDx=0;exitDy=0;" edge="1" parent="1" source="QWppoCl-oQC9Dy7gS9Su-3" target="QWppoCl-oQC9Dy7gS9Su-8">
          <mxGeometry width="50" height="50" relative="1" as="geometry">
            <mxPoint x="470" y="350" as="sourcePoint" />
            <mxPoint x="520" y="300" as="targetPoint" />
          </mxGeometry>
        </mxCell>
        <mxCell id="QWppoCl-oQC9Dy7gS9Su-39" value="" style="endArrow=classic;html=1;rounded=0;entryX=1;entryY=0.5;entryDx=0;entryDy=0;" edge="1" parent="1" target="QWppoCl-oQC9Dy7gS9Su-3">
          <mxGeometry width="50" height="50" relative="1" as="geometry">
            <mxPoint x="410" y="380" as="sourcePoint" />
            <mxPoint x="520" y="300" as="targetPoint" />
          </mxGeometry>
        </mxCell>
        <mxCell id="QWppoCl-oQC9Dy7gS9Su-40" value="" style="endArrow=classic;startArrow=classic;html=1;rounded=0;exitX=1;exitY=0.5;exitDx=0;exitDy=0;entryX=0;entryY=0.5;entryDx=0;entryDy=0;" edge="1" parent="1" source="QWppoCl-oQC9Dy7gS9Su-20" target="QWppoCl-oQC9Dy7gS9Su-8">
          <mxGeometry width="50" height="50" relative="1" as="geometry">
            <mxPoint x="470" y="350" as="sourcePoint" />
            <mxPoint x="520" y="300" as="targetPoint" />
          </mxGeometry>
        </mxCell>
      </root>
    </mxGraphModel>
  </diagram>
</mxfile>
